<?xml version="1.0" encoding="UTF-8" standalone="no"?>
<svg
   version="1.1"
   width="512"
   height="512"
   viewBox="0 0 512 512"
   xml:space="preserve"
   id="svg81"
   xmlns="http://www.w3.org/2000/svg"
   xmlns:svg="http://www.w3.org/2000/svg"
   xmlns:rdf="http://www.w3.org/1999/02/22-rdf-syntax-ns#"
   xmlns:cc="http://creativecommons.org/ns#"
   xmlns:dc="http://purl.org/dc/elements/1.1/"><title
   id="title866">Fr-enemy Logo</title>
<desc
   id="desc62">Created with Fabric.js 4.6.0</desc>
<defs
   id="defs64" />


<g
   id="g7154"
   transform="matrix(1.4849426,0,0,1.4970285,-196.82076,-96.2167)"><path
     d="m 467.86655,142.68333 h -63.72232 c -2.49626,0 -4.72894,-1.50397 -5.67456,-3.8141 -0.94576,-2.31014 -0.38797,-4.93037 1.37929,-6.68231 l 53.02448,-52.14085 h -48.72977 c -3.38001,0 -6.1397,-2.775146 -6.1397,-6.139562 0,-3.395481 2.75969,-6.124237 6.1397,-6.124237 H 467.866 c 2.49625,0 4.72879,1.503964 5.67455,3.8141 0.94576,2.310137 0.38797,4.930372 -1.37929,6.682304 l -53.02448,52.140855 h 48.72977 c 3.37988,0 6.1397,2.75968 6.1397,6.13956 0,3.38002 -2.75982,6.12424 -6.1397,6.12424 z m 71.39706,12.58936 h -30.01618 l 34.34195,-33.75268 c 1.78286,-1.76754 2.31014,-4.37231 1.37929,-6.68231 -0.94576,-2.31013 -3.20937,-3.82956 -5.69001,-3.82956 h -45.03994 c -3.37988,0 -6.13956,2.74422 -6.13956,6.13956 0,3.36456 2.75968,6.1397 6.13956,6.1397 h 30.04724 l -34.35727,33.73736 c -1.7986,1.76739 -2.32574,4.37216 -1.37929,6.6823 0.94576,2.3256 3.1939,3.82956 5.67455,3.82956 h 45.02433 c 3.37988,0 6.1397,-2.74435 6.1397,-6.1397 0.0138,-3.36441 -2.72876,-6.12423 -6.12424,-6.12423 z m -69.24183,52.18738 h -20.93082 l 25.24099,-24.79144 c 1.783,-1.75193 2.3256,-4.4031 1.37929,-6.71323 -0.94576,-2.31014 -3.1939,-3.8141 -5.67455,-3.8141 h -35.93883 c -3.38002,0 -6.13971,2.75982 -6.13971,6.1397 0,3.37988 2.74422,6.1397 6.13971,6.1397 h 20.94627 l -25.24099,24.80677 c -1.78299,1.76739 -2.3256,4.37216 -1.37929,6.6823 0.94576,2.31014 3.19377,3.82956 5.67456,3.82956 h 35.92337 c 3.37988,0 6.13956,-2.74422 6.13956,-6.1397 0,-3.37988 -2.72876,-6.13956 -6.13956,-6.13956 z"
     id="path2613"
     style="opacity:0.67;stroke-width:0.155042" /><g
     id="g792"
     style="fill:#000000;fill-opacity:0.186529"
     transform="matrix(9.7628092,9.7628092,-9.7628092,9.7628092,288.79628,-5956.7207)"><g
       vector-effect="non-scaling-stroke"
       id="g75"
       transform="translate(320,320)"
       style="display:inline;fill:#000000;fill-opacity:0.186529">
		
		
		
<path
   style="opacity:1;fill:none;fill-opacity:1;fill-rule:nonzero;stroke:#000000;stroke-width:1;stroke-linecap:butt;stroke-linejoin:miter;stroke-miterlimit:4;stroke-dasharray:none;stroke-dashoffset:0"
   vector-effect="non-scaling-stroke"
   d="m 8.1,3.575 0.4,2.4 0.1,0.6 -0.5,0.4 L 6.23,8.085 4.24,8.865 2.15,9.325 0,9.475 -2.15,9.305 -4.24,8.825 -6.23,8.045 -8.1,6.975 -8.6,5.06028 m 0,0.24472 0.2,-1.73 0.37,-1.12 0.74,-1.03 0.99,-0.8 1.1,-0.45 0.6,-0.1 -0.56,-0.91 -0.34,-0.99 -0.15,-2.1 0.15,-2.1 0.43,-1.16 0.77,-1.02 0.99,-0.75 1.11,-0.37 2.1,-0.15 2.1,0.15 1.05,0.37 0.96,0.74 0.76,0.99 0.43,1.1 0.15,2.19 -0.15,2.11 -0.26,0.99 -0.64,0.91 0.6,0.1 1.15,0.49 0.98,0.8 0.71,1 0.53959,1.52904"
   stroke-linecap="round"
   id="path66" /><path
   style="opacity:1;fill:none;fill-opacity:1;fill-rule:nonzero;stroke:#000000;stroke-width:1;stroke-linecap:butt;stroke-linejoin:miter;stroke-miterlimit:4;stroke-dasharray:none;stroke-dashoffset:0"
   vector-effect="non-scaling-stroke"
   d="M -3.171011,-2.2777749 -3.1,-2.33 l 0.39,-0.48 0.47,-0.35 0.43,-0.14 1.8,-0.1 1.9,0.1 0.47,0.19 0.47,0.37 0.37,0.47 0.19,0.47 V 1.9 L 3.18,2.43 2.79,2.91 2.32,3.26 1.89,3.4 h -3.7 L -2.34,3.19 -2.82,2.8 -3.17,2.33 -3.31,1.9 -3.39,0.12 -3.17,-2.27"
   stroke-linecap="round"
   id="path69"
   transform="translate(-0.19,-4.13)" /><path
   style="opacity:1;fill:none;fill-opacity:1;fill-rule:nonzero;stroke:#000000;stroke-width:1;stroke-linecap:butt;stroke-linejoin:miter;stroke-miterlimit:4;stroke-dasharray:none;stroke-dashoffset:0"
   vector-effect="non-scaling-stroke"
   d="m -6.35612,1.185 0.3,-1.9 0.19,-0.55 0.39,-0.52 0.49,-0.42 0.53,-0.21 2.27,-0.39 2.28,-0.14 2.28,0.14 2.27,0.39 0.59,0.25 0.52,0.43 0.39,0.53 0.2,0.59 0.2,1.8 -1.52,0.78 -1.61,0.56 -1.66,0.32 -1.7,0.1 -1.69,-0.12 -1.65,-0.33 -1.58,-0.55 -1.4811998,-0.7573095"
   stroke-linecap="round"
   id="path72"
   transform="translate(-0.14,4.49)" /></g><path
       style="fill:#000000;fill-opacity:1;stroke-width:0.02457"
       d="m 318.83292,329.36044 -0.9828,-0.0809 -1.03194,-0.23663 -1.03194,-0.23663 -1.0003,-0.39138 -1.00031,-0.39138 -0.92815,-0.53073 c -0.51048,-0.29191 -0.93019,-0.53278 -0.93269,-0.53528 -0.003,-0.003 -0.11158,-0.41357 -0.24239,-0.91348 l -0.23785,-0.90893 0.089,-0.77396 0.0889,-0.77396 0.18684,-0.56176 0.18684,-0.56176 0.36533,-0.50854 0.36533,-0.50855 0.4935,-0.40003 0.4935,-0.40003 0.55711,-0.22696 c 0.48589,-0.19795 0.59325,-0.23263 0.83968,-0.27126 0.1554,-0.0243 0.29067,-0.0515 0.3006,-0.0603 0.01,-0.009 -0.10886,-0.22192 -0.26397,-0.47359 -0.26936,-0.43703 -0.28964,-0.47958 -0.45186,-0.94812 l -0.16984,-0.49055 -0.076,-1.05393 -0.076,-1.05393 0.0752,-1.04115 0.0752,-1.04114 0.21473,-0.58055 0.21472,-0.58054 0.38643,-0.50837 0.38643,-0.50837 0.49292,-0.3721 0.49292,-0.3721 0.54386,-0.18169 0.54386,-0.18169 1.05093,-0.0758 1.05093,-0.0758 1.05037,0.076 1.05037,0.076 0.48837,0.17255 c 0.2686,0.0949 0.51143,0.18488 0.53962,0.19997 0.0282,0.0151 0.25729,0.1867 0.50912,0.38136 0.42702,0.33009 0.47259,0.37324 0.67659,0.64062 0.58471,0.76639 0.51852,0.65548 0.7514,1.25886 l 0.21326,0.55253 0.0725,1.10566 0.0725,1.10565 -0.0805,1.05651 -0.0805,1.05651 -0.12324,0.4603 -0.12324,0.4603 -0.32326,0.45821 c -0.17779,0.25202 -0.31423,0.46633 -0.30319,0.47624 0.011,0.01 0.14721,0.0378 0.30262,0.0621 0.2563,0.0399 0.3362,0.0669 0.85995,0.29046 l 0.57739,0.24643 0.4914,0.40053 0.4914,0.40052 0.35333,0.49996 0.35334,0.49996 0.18277,0.51379 c 0.10053,0.28259 0.18291,0.54144 0.18307,0.57522 2.4e-4,0.0515 0.43725,2.73372 0.47659,2.92518 0.0226,0.10978 -0.36281,0.38511 -1.40865,1.0064 l -0.92669,0.55051 -0.99508,0.39134 -0.99509,0.39133 -1.04423,0.23018 -1.04422,0.23017 -1.04287,0.0736 c -0.57357,0.0405 -1.09876,0.0722 -1.16707,0.0706 -0.0683,-0.002 -0.56647,-0.0393 -1.10702,-0.0838 z m 1.97754,-1.95329 c 0.81869,-0.0496 0.82634,-0.0506 1.6511,-0.20973 l 0.82861,-0.15987 0.80577,-0.28132 c 0.78178,-0.27294 0.82847,-0.29298 1.56745,-0.67264 0.74116,-0.38079 0.76152,-0.39321 0.75597,-0.46105 -0.003,-0.0383 -0.0446,-0.43458 -0.0922,-0.88052 -0.0816,-0.76482 -0.0924,-0.8293 -0.18996,-1.13672 -0.0973,-0.30645 -0.11561,-0.34232 -0.30669,-0.60058 -0.2927,-0.39562 -0.60906,-0.65252 -1.01794,-0.8266 -0.29737,-0.12661 -0.29749,-0.12664 -1.4432,-0.32274 l -1.1458,-0.19612 -1.13169,-0.0691 -1.13169,-0.0691 -1.12875,0.0683 -1.12876,0.0683 -1.15815,0.19793 c -1.07849,0.18431 -1.17619,0.20518 -1.42046,0.30339 -0.22547,0.0907 -0.29682,0.13452 -0.50799,0.31235 -0.17435,0.14682 -0.30308,0.28361 -0.44337,0.47113 -0.30102,0.40236 -0.35179,0.56675 -0.53715,1.73915 -0.0806,0.51011 -0.14637,0.948 -0.14605,0.9731 4.5e-4,0.035 0.17877,0.13562 0.76781,0.43313 0.73136,0.36939 0.80341,0.40002 1.54119,0.65505 0.75449,0.26081 0.79456,0.27166 1.59359,0.43132 0.78033,0.15593 0.85574,0.1665 1.57248,0.22026 0.95854,0.0719 0.87924,0.0714 1.84586,0.0128 z m 1.10022,-8.178 c 0.31579,-0.099 0.63164,-0.33478 0.90857,-0.6782 0.1667,-0.20674 0.2151,-0.28839 0.29902,-0.50446 l 0.10013,-0.25779 1.5e-4,-1.8694 1.5e-4,-1.8694 -0.0965,-0.23712 c -0.20017,-0.49189 -0.68495,-0.9738 -1.17672,-1.16972 l -0.24308,-0.0968 -0.95329,-0.0505 -0.9533,-0.0505 -0.89914,0.0501 c -0.8644,0.0482 -0.90782,0.0529 -1.12362,0.12368 -0.28811,0.0944 -0.61228,0.32847 -0.8401,0.60648 -0.0855,0.10435 -0.19332,0.2321 -0.23956,0.28387 -0.0462,0.0518 -0.0842,0.11259 -0.0843,0.13514 -1.3e-4,0.0225 -0.0485,0.56618 -0.10742,1.20807 l -0.10719,1.16708 0.0436,0.8968 c 0.0529,1.08824 0.064,1.13564 0.35976,1.53563 0.25965,0.35114 0.57069,0.59757 0.93444,0.74034 l 0.26525,0.1041 1.84397,0.002 1.84396,0.002 0.22521,-0.0706 z"
       id="path646" /><g
       transform="matrix(0.00217667,0,0,-0.00217667,315.38021,320.85112)"
       fill="#000000"
       stroke="none"
       id="g828"
       style="display:inline;fill:#000000;fill-opacity:1;stroke:#000000;stroke-width:111.588;stroke-dasharray:none;stroke-opacity:1"><path
         d="m 1317,3504 c -56,-17 -124,-80 -156,-142 -29,-56 -50,-122 -40,-122 4,0 47,29 93,64 130,98 198,128 309,136 51,4 84,8 74,8 -10,1 -30,11 -45,22 -30,22 -122,50 -162,49 -14,0 -47,-7 -73,-15 z"
         id="path818"
         style="fill:#000000;fill-opacity:1;stroke:#000000;stroke-width:111.588;stroke-dasharray:none;stroke-opacity:1" /><path
         d="m 2700,3500 c -30,-11 -56,-20 -57,-20 -2,0 -3,-6 -3,-14 0,-10 19,-16 63,-21 83,-9 185,-59 287,-140 84,-67 108,-78 95,-47 -4,9 -11,29 -15,43 -12,41 -41,91 -77,135 -64,80 -179,104 -293,64 z"
         id="path820"
         style="fill:#000000;fill-opacity:1;stroke:#000000;stroke-width:111.588;stroke-dasharray:none;stroke-opacity:1" /><path
         d="m 1440,2716 c 0,-39 4,-48 33,-69 65,-49 123,-67 216,-67 79,1 89,3 126,30 22,16 55,36 74,45 31,14 33,18 27,48 -10,50 -32,60 -64,30 -39,-37 -100,-63 -150,-63 -49,0 -138,28 -208,65 -26,14 -49,25 -50,25 -2,0 -4,-20 -4,-44 z"
         id="path822"
         style="fill:#000000;fill-opacity:1;stroke:#000000;stroke-width:111.588;stroke-dasharray:none;stroke-opacity:1" /><path
         d="m 2276,2747 c -8,-7 -19,-26 -22,-44 -6,-29 -3,-34 22,-45 16,-7 51,-28 79,-45 45,-30 56,-33 128,-33 51,0 88,5 105,15 15,8 38,19 52,25 70,29 85,44 88,94 2,27 0,46 -5,45 -4,-2 -33,-16 -63,-30 -68,-33 -157,-59 -196,-58 -41,0 -110,30 -143,62 -23,21 -31,24 -45,14 z"
         id="path824"
         style="fill:#000000;fill-opacity:1;stroke:#000000;stroke-width:111.588;stroke-dasharray:none;stroke-opacity:1" /><path
         d="m 2316,1823 c -45,-7 -205,-71 -274,-110 -92,-51 -239,-191 -314,-299 -30,-42 -40,-70 -49,-126 -13,-81 -7,-183 13,-241 35,-99 172,-169 300,-152 101,14 204,128 253,281 24,74 26,99 27,236 0,140 -4,177 -33,287 -5,17 68,60 104,61 39,0 67,17 67,39 0,29 -23,34 -94,24 z"
         id="path826"
         style="fill:#000000;fill-opacity:1;stroke:#000000;stroke-width:111.588;stroke-dasharray:none;stroke-opacity:1" /></g></g><g
     style="opacity:1;fill:none;fill-rule:nonzero;stroke:none;stroke-width:0;stroke-linecap:butt;stroke-linejoin:miter;stroke-miterlimit:10;stroke-dasharray:none"
     transform="matrix(4.3924466,0,0,4.3924466,55.773228,332.32176)"
     id="g920">
	
	
	
	
	
	
<g
   id="g949"
   style="opacity:1;fill:none;fill-rule:nonzero;stroke:none;stroke-width:0;stroke-linecap:butt;stroke-linejoin:miter;stroke-miterlimit:10;stroke-dasharray:none"
   transform="translate(0,-31.432816)"><path
     d="m 16.154,27.346 3.555,60.704 c 0.064,1.095 0.97,1.95 2.067,1.95 h 46.449 c 1.097,0 2.003,-0.855 2.068,-1.949 L 73.847,27.347 H 16.154 Z"
     style="opacity:1;fill:#ffffff;fill-opacity:1;fill-rule:nonzero;stroke:none;stroke-width:1;stroke-linecap:butt;stroke-linejoin:miter;stroke-miterlimit:10;stroke-dasharray:none"
     stroke-linecap="round"
     id="path912" /><path
     d="m 32.87,81.108 c -0.04,0.003 -0.079,0.004 -0.119,0.004 -1.051,0 -1.933,-0.82 -1.995,-1.883 L 28.481,40.373 c -0.064,-1.103 0.777,-2.049 1.88,-2.113 1.088,-0.066 2.049,0.777 2.113,1.88 l 2.275,38.855 c 0.065,1.103 -0.776,2.049 -1.879,2.113 z"
     style="opacity:1;fill:#000000;fill-opacity:1;fill-rule:nonzero;stroke:none;stroke-width:1;stroke-linecap:butt;stroke-linejoin:miter;stroke-miterlimit:10;stroke-dasharray:none"
     stroke-linecap="round"
     id="path914" /><path
     d="m 47,79.112 c 0,1.104 -0.896,2 -2,2 -1.104,0 -2,-0.896 -2,-2 V 40.256 c 0,-1.104 0.896,-2 2,-2 1.104,0 2,0.896 2,2 z"
     style="opacity:1;fill:#000000;fill-opacity:1;fill-rule:nonzero;stroke:none;stroke-width:1;stroke-linecap:butt;stroke-linejoin:miter;stroke-miterlimit:10;stroke-dasharray:none"
     stroke-linecap="round"
     id="path916" /><path
     d="m 59.244,79.229 c -0.063,1.063 -0.944,1.883 -1.995,1.883 -0.039,0 -0.079,-10e-4 -0.119,-0.003 -1.103,-0.065 -1.944,-1.012 -1.88,-2.114 L 57.525,40.14 c 0.063,-1.103 0.992,-1.947 2.113,-1.88 1.103,0.064 1.944,1.011 1.879,2.113 z"
     style="opacity:1;fill:#000000;fill-opacity:1;fill-rule:nonzero;stroke:none;stroke-width:1;stroke-linecap:butt;stroke-linejoin:miter;stroke-miterlimit:10;stroke-dasharray:none"
     stroke-linecap="round"
     id="path918" /></g><g
   id="g935"
   transform="rotate(-20.000001,-103.05446,-10.292582)"
   style="display:inline;opacity:1;fill:none;fill-opacity:0.186529;fill-rule:nonzero;stroke:none;stroke-width:0;stroke-linecap:butt;stroke-linejoin:miter;stroke-miterlimit:10;stroke-dasharray:none"><path
     d="M 58.587172,10.476481 12.961054,18.487118 C 7.6621043,19.417461 4.1201233,24.468051 5.0504663,29.767 L 5.5804853,32.785825 70.397074,21.405893 69.867055,18.387068 C 68.936711,13.088119 63.886121,9.5461376 58.587172,10.476481 Z"
     style="opacity:1;fill:#ffffff;fill-opacity:1;fill-rule:nonzero;stroke:none;stroke-width:1;stroke-linecap:butt;stroke-linejoin:miter;stroke-miterlimit:10;stroke-dasharray:none"
     stroke-linecap="round"
     id="path908" /><path
     d="M 48.915852,16.307756 24.041325,20.675009 C 22.953957,20.86592 21.916513,20.13836 21.725603,19.050992 20.536561,12.27858 25.078125,5.8026636 31.849552,4.6137955 L 36.1025,3.8670999 c 6.771426,-1.1888682 13.248328,3.3525223 14.437369,10.1249341 0.190911,1.087368 -0.536649,2.124812 -1.624017,2.315722 z m -23.361948,0.0405 20.465959,-3.593235 C 44.490241,9.2588671 40.716215,7.1182465 36.794205,7.8068389 l -4.252948,0.7466957 c -3.921026,0.6884195 -6.741138,3.9867814 -6.987353,7.7947264 z"
     style="opacity:1;fill:#ffffff;fill-opacity:1;fill-rule:nonzero;stroke:none;stroke-width:1;stroke-linecap:butt;stroke-linejoin:miter;stroke-miterlimit:10;stroke-dasharray:none"
     stroke-linecap="round"
     id="path910" /></g></g></g><metadata
   id="metadata864"><rdf:RDF><cc:Work
       rdf:about=""><dc:title>Fr-enemy Logo</dc:title></cc:Work></rdf:RDF></metadata></svg>
